v -0.30579 -0.397175 -9.9974
vn -0.722317 -0.68503 -0.0948291
v -1.33269 -1.40259 6.0951
vn -0.70882 -0.705179 0.0172434
v -1.33269 1.34518 6.0951
vn -0.762171 0.647375 0.00130905
v -0.30579 0.339763 -9.9974
vn -0.216732 0.971943 -0.0914034
v 1.34662 -1.40259 6.0951
vn 0.723974 -0.689652 -0.0155527
v 0.319724 -0.397175 -9.9974
vn 0.754137 -0.640113 -0.146742
v 0.319724 0.339763 -9.9974
vn 0.980981 0.176089 -0.0816639
v 1.34662 1.34518 6.0951
vn 0.667422 0.744677 -0.00189994
v -0.410714 -0.306259 9.91862
vn -0.471624 -0.709732 0.523309
v -0.410714 0.248848 9.91862
vn -0.917961 0.23217 0.321628
v 0.424648 -0.306259 9.91862
vn 0.636 -0.676782 0.37077
v 0.424648 0.248848 9.91862
vn 0.145392 0.920556 0.362544
f 1//1 2//2 3//3 
f 1//1 3//3 4//4 
f 5//5 6//6 7//7 
f 5//5 7//7 8//8 
f 6//6 1//1 4//4 
f 6//6 4//4 7//7 
f 1//1 6//6 5//5 
f 1//1 5//5 2//2 
f 4//4 3//3 8//8 
f 4//4 8//8 7//7 
f 2//2 9//9 10//10 
f 2//2 10//10 3//3 
f 9//9 11//11 12//12 
f 9//9 12//12 10//10 
f 11//11 5//5 8//8 
f 11//11 8//8 12//12 
f 2//2 5//5 11//11 
f 2//2 11//11 9//9 
f 3//3 10//10 12//12 
f 3//3 12//12 8//8 
