# Blender OBJ File: /ai/lloyd/research/artisynth/meshes/bodyAndBox.blend
# www.blender.org
mtllib taperedBin.mtl
o Cube.005_Cube.005
v 10.0 10.0000019073 -2.49999880791
v 10.0 10.0000019073 -4.50000095367
v -10.0 10.0000019073 -4.50000095367
v -9.9999961853 10.0000019073 -2.49999880791
v 10.0000038147 -10.0 -2.49999928474
v 9.99999427795 -10.0000019073 -4.50000095367
v -10.0000038147 -10.0000019073 -4.49999904633
v -10.0 -10.0 -2.49999928474
v 11.999994278 -10.0000019073 -4.50000476837
v 12.0000038147 -10.0000019073 4.49999713898
v 12.0 10.0000019073 -4.50000476837
v 12.0 10.0000019073 4.49999523163
v 13.0 10.0000019073 4.49999523163
v 13.0 10.0000019073 -4.50000667572
v 13.0000038147 -10.0000019073 4.49999332428
v 12.999994278 -10.0000019073 -4.50000667572
v -12.0 -10.0000019073 4.50000476837
v -12.0000038147 -10.0000019073 -4.49999523163
v -11.9999961853 10.0000019073 4.50000286102
v -12.0 10.0000019073 -4.49999713898
v -13.0 10.0000019073 -4.49999332428
v -12.9999961853 10.0000019073 4.50000667572
v -13.0000038147 -10.0000019073 -4.49999332428
v -13.0 -10.0000019073 4.50000476837
v -13.0 -12.0000019073 4.50000476837
v -13.0000038147 -12.0000019073 -4.49999332428
v -12.0000038147 -12.0000019073 -4.49999523163
v -12.0 -12.0000019073 4.50000476837
v 12.999994278 -12.0000019073 -4.50000667572
v 13.0000038147 -12.0000019073 4.49999332428
v 12.0000038147 -12.0000019073 4.49999523163
v 11.999994278 -12.0000019073 -4.50000476837
v -10.0 -12.0000019073 4.50000095367
v -10.0000038147 -12.0000019073 -4.49999904633
v 9.99999427795 -12.0000019073 -4.50000095367
v 10.0000038147 -12.0000019073 4.49999904633
v 10.0000038147 -13.0000019073 4.49999904633
v 9.99999427795 -13.0000019073 -4.50000095367
v -10.0000038147 -13.0000019073 -4.49999904633
v -10.0 -13.0000019073 4.50000095367
v 11.999994278 -13.0000019073 -4.50000476837
v 12.0000038147 -13.0000019073 4.49999523163
v 13.0000038147 -13.0000019073 4.49999332428
v 12.999994278 -13.0000019073 -4.50000667572
v -12.0 -13.0000019073 4.50000476837
v -12.0000038147 -13.0000019073 -4.49999523163
v -13.0000038147 -13.0000019073 -4.49999523163
v -13.0 -13.0000019073 4.50000476837
v -12.9999961853 12.0000019073 4.50000667572
v -13.0 12.0000019073 -4.49999332428
v -12.0 12.0000019073 -4.49999713898
v -11.9999961853 12.0000019073 4.50000286102
v 13.0 12.0000019073 -4.50000667572
v 13.0 12.0000019073 4.49999523163
v 12.0 12.0000019073 4.49999523163
v 12.0 12.0000019073 -4.50000476837
v -9.9999961853 12.0000019073 4.49999904633
v -10.0 12.0000019073 -4.50000095367
v 10.0 12.0000019073 -4.50000095367
v 10.0 12.0000019073 4.49999904633
v 10.0 13.0000019073 4.49999904633
v 10.0 13.0000019073 -4.50000095367
v -10.0 13.0000019073 -4.50000095367
v -9.9999961853 13.0000019073 4.50000095367
v 12.0 13.0000019073 -4.50000476837
v 12.0 13.0000019073 4.49999523163
v 13.0 13.0000019073 4.49999523163
v 13.0 13.0000019073 -4.50000476837
v -11.9999961853 13.0000019073 4.50000476837
v -12.0 13.0000019073 -4.49999713898
v -13.0 13.0000019073 -4.49999332428
v -12.9999961853 13.0000019073 4.50000667572
vt 0.0 0.0 0.0
vt 0.0 0.0 0.0
vt 0.0 0.0 0.0
vt 0.0 0.0 0.0
vt 0.0 0.0 0.0
vt 0.0 0.0 0.0
vt 0.0 0.0 0.0
vt 0.0 0.0 0.0
vt 0.0 0.0 0.0
vt 0.0 0.0 0.0
vt 0.0 0.0 0.0
vt 0.0 0.0 0.0
vt 0.0 0.0 0.0
vt 0.0 0.0 0.0
vt 0.0 0.0 0.0
vt 0.0 0.0 0.0
vt 0.0 0.0 0.0
vt 0.0 0.0 0.0
vt 0.0 0.0 0.0
vt 0.0 0.0 0.0
vt 0.0 0.0 0.0
vt 0.0 0.0 0.0
vt 0.0 0.0 0.0
vt 0.0 0.0 0.0
vt 0.0 0.0 0.0
vt 0.0 0.0 0.0
vt 0.0 0.0 0.0
vt 0.0 0.0 0.0
vt 0.0 0.0 0.0
vt 0.0 0.0 0.0
vt 0.0 0.0 0.0
vt 0.0 0.0 0.0
vt 0.0 0.0 0.0
vt 0.0 0.0 0.0
vt 0.0 0.0 0.0
vt 0.0 0.0 0.0
vt 0.0 0.0 0.0
vt 0.0 0.0 0.0
vt 0.0 0.0 0.0
vt 0.0 0.0 0.0
vt 0.0 0.0 0.0
vt 0.0 0.0 0.0
vt 0.0 0.0 0.0
vt 0.0 0.0 0.0
vt 0.0 0.0 0.0
vt 0.0 0.0 0.0
vt 0.0 0.0 0.0
vt 0.0 0.0 0.0
vt 0.0 0.0 0.0
vt 0.0 0.0 0.0
vt 0.0 0.0 0.0
vt 0.0 0.0 0.0
vt 0.0 0.0 0.0
vt 0.0 0.0 0.0
vt 0.0 0.0 0.0
vt 0.0 0.0 0.0
vt 0.0 0.0 0.0
vt 0.0 0.0 0.0
vt 0.0 0.0 0.0
vt 0.0 0.0 0.0
vt 0.0 0.0 0.0
vt 0.0 0.0 0.0
vt 0.0 0.0 0.0
vt 0.0 0.0 0.0
vt 0.0 0.0 0.0
vt 0.0 0.0 0.0
vt 0.0 0.0 0.0
vt 0.0 0.0 0.0
vt 0.0 0.0 0.0
vt 0.0 0.0 0.0
vt 0.0 0.0 0.0
vt 0.0 0.0 0.0
vt 0.0 0.0 0.0
vt 0.0 0.0 0.0
vt 0.0 0.0 0.0
vt 0.0 0.0 0.0
vt 0.0 0.0 0.0
vt 0.0 0.0 0.0
vt 0.0 0.0 0.0
vt 0.0 0.0 0.0
vt 0.0 0.0 0.0
vt 0.0 0.0 0.0
vt 0.0 0.0 0.0
vt 0.0 0.0 0.0
vt 0.0 0.0 0.0
vt 0.0 0.0 0.0
vt 0.0 0.0 0.0
vt 0.0 0.0 0.0
vt 0.0 0.0 0.0
vt 0.0 0.0 0.0
vt 0.0 0.0 0.0
vt 0.0 0.0 0.0
vt 0.0 0.0 0.0
vt 0.0 0.0 0.0
vt 0.0 0.0 0.0
vt 0.0 0.0 0.0
vt 0.0 0.0 0.0
vt 0.0 0.0 0.0
vt 0.0 0.0 0.0
vt 0.0 0.0 0.0
vt 0.0 0.0 0.0
vt 0.0 0.0 0.0
vt 0.0 0.0 0.0
vt 0.0 0.0 0.0
vt 0.0 0.0 0.0
vt 0.0 0.0 0.0
vt 0.0 0.0 0.0
vt 0.0 0.0 0.0
vt 0.0 0.0 0.0
vt 0.0 0.0 0.0
vt 0.0 0.0 0.0
vt 0.0 0.0 0.0
vt 0.0 0.0 0.0
vt 0.0 0.0 0.0
vt 0.0 0.0 0.0
vt 0.0 0.0 0.0
vt 0.0 0.0 0.0
vt 0.0 0.0 0.0
vt 0.0 0.0 0.0
vt 0.0 0.0 0.0
vt 0.0 0.0 0.0
vt 0.0 0.0 0.0
vt 0.0 0.0 0.0
vt 0.0 0.0 0.0
vt 0.0 0.0 0.0
vt 0.0 0.0 0.0
vt 0.0 0.0 0.0
vt 0.0 0.0 0.0
vt 0.0 0.0 0.0
vt 0.0 0.0 0.0
vt 0.0 0.0 0.0
vt 0.0 0.0 0.0
vt 0.0 0.0 0.0
vt 0.0 0.0 0.0
vt 0.0 0.0 0.0
vt 0.0 0.0 0.0
vt 0.0 0.0 0.0
vt 0.0 0.0 0.0
vt 0.0 0.0 0.0
vt 0.0 0.0 0.0
vt 0.0 0.0 0.0
vt 0.0 0.0 0.0
vt 0.0 0.0 0.0
vt 0.0 0.0 0.0
vt 0.0 0.0 0.0
vt 0.0 0.0 0.0
vt 0.0 0.0 0.0
vt 0.0 0.0 0.0
vt 0.0 0.0 0.0
vt 0.0 0.0 0.0
vt 0.0 0.0 0.0
vt 0.0 0.0 0.0
vt 0.0 0.0 0.0
vt 0.0 0.0 0.0
vt 0.0 0.0 0.0
vt 0.0 0.0 0.0
vt 0.0 0.0 0.0
vt 0.0 0.0 0.0
vt 0.0 0.0 0.0
vt 0.0 0.0 0.0
vt 0.0 0.0 0.0
vt 0.0 0.0 0.0
vt 0.0 0.0 0.0
vt 0.0 0.0 0.0
vt 0.0 0.0 0.0
vt 0.0 0.0 0.0
vt 0.0 0.0 0.0
vt 0.0 0.0 0.0
vt 0.0 0.0 0.0
vt 0.0 0.0 0.0
vt 0.0 0.0 0.0
vt 0.0 0.0 0.0
vt 0.0 0.0 0.0
vt 0.0 0.0 0.0
vt 0.0 0.0 0.0
vt 0.0 0.0 0.0
vt 0.0 0.0 0.0
vt 0.0 0.0 0.0
vt 0.0 0.0 0.0
vt 0.0 0.0 0.0
vt 0.0 0.0 0.0
vt 0.0 0.0 0.0
vt 0.0 0.0 0.0
vt 0.0 0.0 0.0
vt 0.0 0.0 0.0
vt 0.0 0.0 0.0
vt 0.0 0.0 0.0
vt 0.0 0.0 0.0
vt 0.0 0.0 0.0
vt 0.0 0.0 0.0
vt 0.0 0.0 0.0
vt 0.0 0.0 0.0
vt 0.0 0.0 0.0
vt 0.0 0.0 0.0
vt 0.0 0.0 0.0
vt 0.0 0.0 0.0
vt 0.0 0.0 0.0
vt 0.0 0.0 0.0
vt 0.0 0.0 0.0
vt 0.0 0.0 0.0
vt 0.0 0.0 0.0
vt 0.0 0.0 0.0
vt 0.0 0.0 0.0
vt 0.0 0.0 0.0
vt 0.0 0.0 0.0
vt 0.0 0.0 0.0
vt 0.0 0.0 0.0
vt 0.0 0.0 0.0
vt 0.0 0.0 0.0
vt 0.0 0.0 0.0
vt 0.0 0.0 0.0
vt 0.0 0.0 0.0
vt 0.0 0.0 0.0
vt 0.0 0.0 0.0
vt 0.0 0.0 0.0
vt 0.0 0.0 0.0
vt 0.0 0.0 0.0
vt 0.0 0.0 0.0
vt 0.0 0.0 0.0
vt 0.0 0.0 0.0
vt 0.0 0.0 0.0
vt 0.0 0.0 0.0
vt 0.0 0.0 0.0
vt 0.0 0.0 0.0
vt 0.0 0.0 0.0
vt 0.0 0.0 0.0
vt 0.0 0.0 0.0
vt 0.0 0.0 0.0
vt 0.0 0.0 0.0
vt 0.0 0.0 0.0
vt 0.0 0.0 0.0
vt 0.0 0.0 0.0
vt 0.0 0.0 0.0
vt 0.0 0.0 0.0
vt 0.0 0.0 0.0
vt 0.0 0.0 0.0
vt 0.0 0.0 0.0
vt 0.0 0.0 0.0
vt 0.0 0.0 0.0
vt 0.0 0.0 0.0
vt 0.0 0.0 0.0
vt 0.0 0.0 0.0
vt 0.0 0.0 0.0
vt 0.0 0.0 0.0
vt 0.0 0.0 0.0
vt 0.0 0.0 0.0
vt 0.0 0.0 0.0
vt 0.0 0.0 0.0
vt 0.0 0.0 0.0
vt 0.0 0.0 0.0
vt 0.0 0.0 0.0
vt 0.0 0.0 0.0
vt 0.0 0.0 0.0
vt 0.0 0.0 0.0
vt 0.0 0.0 0.0
vt 0.0 0.0 0.0
vt 0.0 0.0 0.0
vt 0.0 0.0 0.0
vt 0.0 0.0 0.0
vt 0.0 0.0 0.0
vt 0.0 0.0 0.0
vt 0.0 0.0 0.0
vt 0.0 0.0 0.0
vt 0.0 0.0 0.0
vt 0.0 0.0 0.0
vt 0.0 0.0 0.0
vt 0.0 0.0 0.0
vt 0.0 0.0 0.0
vt 0.0 0.0 0.0
vt 0.0 0.0 0.0
vt 0.0 0.0 0.0
vt 0.0 0.0 0.0
vt 0.0 0.0 0.0
vt 0.0 0.0 0.0
vt 0.0 0.0 0.0
vt 0.0 0.0 0.0
vt 0.0 0.0 0.0
vt 0.0 0.0 0.0
vt 0.0 0.0 0.0
vt 0.0 0.0 0.0
vn 0.0 -7.5497901264e-08 -1.0
vn 0.0 -7.5497901264e-08 -1.0
vn 0.0 -7.5497901264e-08 -1.0
vn 0.0 -7.5497901264e-08 -1.0
vn -0.541083931923 0.541083991528 0.643782734871
vn -0.541083931923 -0.541083872318 0.64378285408
vn 0.541083931923 -0.541083872318 0.64378285408
vn 0.541083931923 0.541083991528 0.643782734871
vn -0.541083931923 -0.541083872318 0.64378285408
vn -0.541083931923 0.541083991528 0.643782734871
vn -0.509762763977 0.206645801663 0.835128366947
vn -0.509762823582 -0.206645682454 0.835128426552
vn 0.0 -7.5497901264e-08 -1.0
vn 0.0 -7.5497901264e-08 -1.0
vn 0.0 -7.5497901264e-08 -1.0
vn 0.0 -7.5497901264e-08 -1.0
vn 0.0 -7.5497901264e-08 -1.0
vn 0.0 -7.5497901264e-08 -1.0
vn 0.707106769085 -5.33850794682e-08 -0.707106769085
vn 0.707106769085 -5.33850794682e-08 -0.707106769085
vn -0.509762823582 -0.206645682454 0.835128426552
vn -0.509762763977 0.206645801663 0.835128366947
vn 0.707106769085 5.33850794682e-08 0.707106769085
vn 0.707106769085 5.33850794682e-08 0.707106769085
vn 0.707106769085 5.33850794682e-08 0.707106769085
vn 0.707106769085 5.33850794682e-08 0.707106769085
vn 0.707106769085 -5.33850794682e-08 -0.707106769085
vn 0.707106769085 -5.33850794682e-08 -0.707106769085
vn 0.541083931923 0.541083991528 0.643782734871
vn 0.541083931923 -0.541083872318 0.64378285408
vn 0.509762823582 -0.206645682454 0.835128426552
vn 0.509762763977 0.206645801663 0.835128366947
vn 0.0 -7.5497901264e-08 -1.0
vn 0.0 -7.5497901264e-08 -1.0
vn 0.0 -7.5497901264e-08 -1.0
vn 0.0 -7.5497901264e-08 -1.0
vn 0.0 -7.5497901264e-08 -1.0
vn 0.0 -7.5497901264e-08 -1.0
vn -0.707106769085 -5.33850794682e-08 -0.707106769085
vn -0.707106769085 -5.33850794682e-08 -0.707106769085
vn 0.509762763977 0.206645801663 0.835128366947
vn 0.509762823582 -0.206645682454 0.835128426552
vn -0.707106769085 5.33850794682e-08 0.707106769085
vn -0.707106769085 5.33850794682e-08 0.707106769085
vn -0.707106769085 -5.33850794682e-08 -0.707106769085
vn -0.707106769085 -5.33850794682e-08 -0.707106769085
vn -0.707106769085 5.33850794682e-08 0.707106769085
vn -0.707106769085 5.33850794682e-08 0.707106769085
vn -0.707106769085 -5.33850794682e-08 -0.707106769085
vn 0.0 -7.5497901264e-08 -1.0
vn 0.0 -7.5497901264e-08 -1.0
vn -0.707106769085 -5.33850794682e-08 -0.707106769085
vn -0.707106769085 5.33850794682e-08 0.707106769085
vn -0.707106769085 -5.33850794682e-08 -0.707106769085
vn -0.707106769085 -5.33850794682e-08 -0.707106769085
vn -0.707106769085 5.33850794682e-08 0.707106769085
vn 0.509762763977 0.206645801663 0.835128366947
vn -0.707106769085 5.33850794682e-08 0.707106769085
vn -0.707106769085 5.33850794682e-08 0.707106769085
vn 0.187324270606 0.187324345112 0.964271306992
vn 0.0 -7.5497901264e-08 -1.0
vn 0.0 -7.5497901264e-08 -1.0
vn 0.0 -7.5497901264e-08 -1.0
vn 0.0 -7.5497901264e-08 -1.0
vn 0.541083931923 0.541083991528 0.643782734871
vn 0.509762763977 0.206645801663 0.835128366947
vn 0.187324270606 0.187324345112 0.964271306992
vn 0.206645742059 0.509762883186 0.835128366947
vn 0.707106769085 5.33850794682e-08 0.707106769085
vn -0.509762763977 0.206645801663 0.835128366947
vn -0.187324270606 0.187324345112 0.964271306992
vn 0.707106769085 5.33850794682e-08 0.707106769085
vn 0.707106769085 -5.33850794682e-08 -0.707106769085
vn 0.707106769085 5.33850794682e-08 0.707106769085
vn 0.707106769085 5.33850794682e-08 0.707106769085
vn 0.707106769085 -5.33850794682e-08 -0.707106769085
vn 0.0 -7.5497901264e-08 -1.0
vn 0.707106769085 -5.33850794682e-08 -0.707106769085
vn 0.707106769085 -5.33850794682e-08 -0.707106769085
vn 0.0 -7.5497901264e-08 -1.0
vn 0.0 -7.5497901264e-08 -1.0
vn 0.0 -7.5497901264e-08 -1.0
vn 0.0 -7.5497901264e-08 -1.0
vn 0.0 -7.5497901264e-08 -1.0
vn -0.509762763977 0.206645801663 0.835128366947
vn -0.541083931923 0.541083991528 0.643782734871
vn -0.206645742059 0.509762883186 0.835128366947
vn -0.187324270606 0.187324345112 0.964271306992
vn -0.541083931923 0.541083991528 0.643782734871
vn 0.541083931923 0.541083991528 0.643782734871
vn 0.206645742059 0.509762883186 0.835128366947
vn -0.206645742059 0.509762883186 0.835128366947
vn 0.0 -7.5497901264e-08 -1.0
vn 0.0 -7.5497901264e-08 -1.0
vn 0.0 -7.5497901264e-08 -1.0
vn 0.0 -7.5497901264e-08 -1.0
vn 0.0 -7.5497901264e-08 -1.0
vn 0.0 -7.5497901264e-08 -1.0
vn 0.0 -0.70710682869 -0.70710670948
vn 0.0 -0.70710682869 -0.70710670948
vn -0.206645742059 0.509762883186 0.835128366947
vn 0.206645742059 0.509762883186 0.835128366947
vn 0.0 -0.70710670948 0.70710682869
vn 0.0 -0.70710670948 0.70710682869
vn -0.187324270606 0.187324345112 0.964271306992
vn -0.206645742059 0.509762883186 0.835128366947
vn 0.0 -0.70710670948 0.70710682869
vn 0.0 -0.70710670948 0.70710682869
vn 0.0 -7.5497901264e-08 -1.0
vn 0.0 -7.5497901264e-08 -1.0
vn 0.0 -0.70710682869 -0.70710670948
vn 0.0 -0.70710682869 -0.70710670948
vn 0.0 -7.5497901264e-08 -1.0
vn 0.707106769085 -5.33850794682e-08 -0.707106769085
vn 0.577350258827 -0.577350318432 -0.577350199223
vn 0.0 -0.70710682869 -0.70710670948
vn 0.707106769085 -5.33850794682e-08 -0.707106769085
vn 0.707106769085 5.33850794682e-08 0.707106769085
vn 0.577350258827 -0.577350199223 0.577350318432
vn 0.577350258827 -0.577350318432 -0.577350199223
vn 0.707106769085 5.33850794682e-08 0.707106769085
vn -0.187324270606 0.187324345112 0.964271306992
vn 0.0 -0.70710670948 0.70710682869
vn 0.577350258827 -0.577350199223 0.577350318432
vn 0.206645742059 0.509762883186 0.835128366947
vn 0.187324270606 0.187324345112 0.964271306992
vn 0.0 -0.70710670948 0.70710682869
vn 0.0 -0.70710670948 0.70710682869
vn 0.0 -7.5497901264e-08 -1.0
vn 0.0 -7.5497901264e-08 -1.0
vn 0.0 -0.70710682869 -0.70710670948
vn 0.0 -0.70710682869 -0.70710670948
vn 0.187324270606 0.187324345112 0.964271306992
vn -0.707106769085 5.33850794682e-08 0.707106769085
vn -0.577350258827 -0.577350199223 0.577350318432
vn 0.0 -0.70710670948 0.70710682869
vn -0.707106769085 5.33850794682e-08 0.707106769085
vn -0.707106769085 -5.33850794682e-08 -0.707106769085
vn -0.577350258827 -0.577350318432 -0.577350199223
vn -0.577350258827 -0.577350199223 0.577350318432
vn -0.707106769085 -5.33850794682e-08 -0.707106769085
vn 0.0 -7.5497901264e-08 -1.0
vn 0.0 -0.70710682869 -0.70710670948
vn -0.577350258827 -0.577350318432 -0.577350199223
vn 0.0 -0.70710670948 0.70710682869
vn 0.0 -0.70710670948 0.70710682869
vn 0.0 -0.70710682869 -0.70710670948
vn 0.0 -0.70710682869 -0.70710670948
vn 0.0 -0.70710670948 0.70710682869
vn 0.0 -0.70710682869 -0.70710670948
vn 0.0 -0.70710682869 -0.70710670948
vn 0.0 -0.70710670948 0.70710682869
vn 0.0 -0.70710670948 0.70710682869
vn 0.0 -0.70710682869 -0.70710670948
vn 0.577350258827 -0.577350318432 -0.577350199223
vn 0.577350258827 -0.577350199223 0.577350318432
vn 0.0 -0.70710682869 -0.70710670948
vn 0.0 -0.70710670948 0.70710682869
vn 0.0 -0.70710670948 0.70710682869
vn 0.0 -0.70710682869 -0.70710670948
vn 0.0 -0.70710682869 -0.70710670948
vn 0.0 -0.70710670948 0.70710682869
vn -0.577350258827 -0.577350199223 0.577350318432
vn -0.577350258827 -0.577350318432 -0.577350199223
vn -0.707106769085 5.33850794682e-08 0.707106769085
vn 0.509762823582 -0.206645682454 0.835128426552
vn 0.187324270606 -0.1873241961 0.964271366596
vn -0.707106769085 5.33850794682e-08 0.707106769085
vn -0.707106769085 -5.33850794682e-08 -0.707106769085
vn -0.707106769085 5.33850794682e-08 0.707106769085
vn -0.707106769085 5.33850794682e-08 0.707106769085
vn -0.707106769085 -5.33850794682e-08 -0.707106769085
vn 0.0 -7.5497901264e-08 -1.0
vn -0.707106769085 -5.33850794682e-08 -0.707106769085
vn -0.707106769085 -5.33850794682e-08 -0.707106769085
vn 0.0 -7.5497901264e-08 -1.0
vn 0.0 -7.5497901264e-08 -1.0
vn 0.0 -7.5497901264e-08 -1.0
vn 0.0 -7.5497901264e-08 -1.0
vn 0.0 -7.5497901264e-08 -1.0
vn 0.509762823582 -0.206645682454 0.835128426552
vn 0.541083931923 -0.541083872318 0.64378285408
vn 0.206645742059 -0.509762704372 0.835128426552
vn 0.187324270606 -0.1873241961 0.964271366596
vn 0.707106769085 -5.33850794682e-08 -0.707106769085
vn 0.0 -7.5497901264e-08 -1.0
vn 0.0 -7.5497901264e-08 -1.0
vn 0.707106769085 -5.33850794682e-08 -0.707106769085
vn 0.707106769085 5.33850794682e-08 0.707106769085
vn 0.707106769085 -5.33850794682e-08 -0.707106769085
vn 0.707106769085 -5.33850794682e-08 -0.707106769085
vn 0.707106769085 5.33850794682e-08 0.707106769085
vn -0.509762823582 -0.206645682454 0.835128426552
vn 0.707106769085 5.33850794682e-08 0.707106769085
vn 0.707106769085 5.33850794682e-08 0.707106769085
vn -0.187324270606 -0.1873241961 0.964271366596
vn 0.0 -7.5497901264e-08 -1.0
vn 0.0 -7.5497901264e-08 -1.0
vn 0.0 -7.5497901264e-08 -1.0
vn 0.0 -7.5497901264e-08 -1.0
vn -0.541083931923 -0.541083872318 0.64378285408
vn -0.509762823582 -0.206645682454 0.835128426552
vn -0.187324270606 -0.1873241961 0.964271366596
vn -0.206645742059 -0.509762704372 0.835128426552
vn 0.541083931923 -0.541083872318 0.64378285408
vn -0.541083931923 -0.541083872318 0.64378285408
vn -0.206645742059 -0.509762704372 0.835128426552
vn 0.206645742059 -0.509762704372 0.835128426552
vn 0.0 -7.5497901264e-08 -1.0
vn 0.0 -7.5497901264e-08 -1.0
vn 0.0 -7.5497901264e-08 -1.0
vn 0.0 -7.5497901264e-08 -1.0
vn 0.0 -7.5497901264e-08 -1.0
vn 0.0 -7.5497901264e-08 -1.0
vn 0.0 0.70710670948 -0.70710682869
vn 0.0 0.70710670948 -0.70710682869
vn 0.206645742059 -0.509762704372 0.835128426552
vn -0.206645742059 -0.509762704372 0.835128426552
vn 0.0 0.70710682869 0.70710670948
vn 0.0 0.70710682869 0.70710670948
vn -0.206645742059 -0.509762704372 0.835128426552
vn -0.187324270606 -0.1873241961 0.964271366596
vn 0.0 0.70710682869 0.70710670948
vn 0.0 0.70710682869 0.70710670948
vn 0.0 -7.5497901264e-08 -1.0
vn 0.0 -7.5497901264e-08 -1.0
vn 0.0 0.70710670948 -0.70710682869
vn 0.0 0.70710670948 -0.70710682869
vn -0.187324270606 -0.1873241961 0.964271366596
vn 0.707106769085 5.33850794682e-08 0.707106769085
vn 0.577350258827 0.577350318432 0.577350199223
vn 0.0 0.70710682869 0.70710670948
vn 0.707106769085 5.33850794682e-08 0.707106769085
vn 0.707106769085 -5.33850794682e-08 -0.707106769085
vn 0.577350258827 0.577350199223 -0.577350318432
vn 0.577350258827 0.577350318432 0.577350199223
vn 0.707106769085 -5.33850794682e-08 -0.707106769085
vn 0.0 -7.5497901264e-08 -1.0
vn 0.0 0.70710670948 -0.70710682869
vn 0.577350258827 0.577350199223 -0.577350318432
vn 0.187324270606 -0.1873241961 0.964271366596
vn 0.206645742059 -0.509762704372 0.835128426552
vn 0.0 0.70710682869 0.70710670948
vn 0.0 0.70710682869 0.70710670948
vn 0.0 -7.5497901264e-08 -1.0
vn 0.0 -7.5497901264e-08 -1.0
vn 0.0 0.70710670948 -0.70710682869
vn 0.0 0.70710670948 -0.70710682869
vn 0.0 -7.5497901264e-08 -1.0
vn -0.707106769085 -5.33850794682e-08 -0.707106769085
vn -0.577350258827 0.577350199223 -0.577350318432
vn 0.0 0.70710670948 -0.70710682869
vn -0.707106769085 -5.33850794682e-08 -0.707106769085
vn -0.707106769085 5.33850794682e-08 0.707106769085
vn -0.577350258827 0.577350318432 0.577350199223
vn -0.577350258827 0.577350199223 -0.577350318432
vn -0.707106769085 5.33850794682e-08 0.707106769085
vn 0.187324270606 -0.1873241961 0.964271366596
vn 0.0 0.70710682869 0.70710670948
vn -0.577350258827 0.577350318432 0.577350199223
vn 0.0 0.70710670948 -0.70710682869
vn 0.0 0.70710682869 0.70710670948
vn 0.0 0.70710682869 0.70710670948
vn 0.0 0.70710670948 -0.70710682869
vn 0.0 0.70710670948 -0.70710682869
vn 0.0 0.70710682869 0.70710670948
vn 0.0 0.70710682869 0.70710670948
vn 0.0 0.70710670948 -0.70710682869
vn 0.0 0.70710670948 -0.70710682869
vn 0.0 0.70710682869 0.70710670948
vn 0.577350258827 0.577350318432 0.577350199223
vn 0.577350258827 0.577350199223 -0.577350318432
vn 0.0 0.70710682869 0.70710670948
vn 0.0 0.70710670948 -0.70710682869
vn 0.0 0.70710670948 -0.70710682869
vn 0.0 0.70710682869 0.70710670948
vn 0.0 0.70710682869 0.70710670948
vn 0.0 0.70710670948 -0.70710682869
vn -0.577350258827 0.577350199223 -0.577350318432
vn -0.577350258827 0.577350318432 0.577350199223
f 2/1/1 6/2/2 7/3/3 3/4/4 
f 5/5/5 1/6/6 4/7/7 8/8/8 
f 1/9/9 5/10/10 10/11/11 12/12/12 
f 6/13/13 2/14/14 11/15/15 9/16/16 
f 9/17/17 11/18/18 14/19/19 16/20/20 
f 12/21/21 10/22/22 15/23/23 13/24/24 
f 13/25/25 15/26/26 16/27/27 14/28/28 
f 8/29/29 4/30/30 19/31/31 17/32/32 
f 3/33/33 7/34/34 18/35/35 20/36/36 
f 20/37/37 18/38/38 23/39/39 21/40/40 
f 17/41/41 19/42/42 22/43/43 24/44/44 
f 21/45/45 23/46/46 24/47/47 22/48/48 
f 23/49/49 18/50/50 27/51/51 26/52/52 
f 24/53/53 23/54/54 26/55/55 25/56/56 
f 17/57/57 24/58/58 25/59/59 28/60/60 
f 18/61/61 7/62/62 34/63/63 27/64/64 
f 8/65/65 17/66/66 28/67/67 33/68/68 
f 15/69/69 10/70/70 31/71/71 30/72/72 
f 16/73/73 15/74/74 30/75/75 29/76/76 
f 9/77/77 16/78/78 29/79/79 32/80/80 
f 6/81/81 9/82/82 32/83/83 35/84/84 
f 10/85/85 5/86/86 36/87/87 31/88/88 
f 5/89/89 8/90/90 33/91/91 36/92/92 
f 7/93/93 6/94/94 35/95/95 34/96/96 
f 34/97/97 35/98/98 38/99/99 39/100/100 
f 36/101/101 33/102/102 40/103/103 37/104/104 
f 31/105/105 36/106/106 37/107/107 42/108/108 
f 35/109/109 32/110/110 41/111/111 38/112/112 
f 32/113/113 29/114/114 44/115/115 41/116/116 
f 29/117/117 30/118/118 43/119/119 44/120/120 
f 30/121/121 31/122/122 42/123/123 43/124/124 
f 33/125/125 28/126/126 45/127/127 40/128/128 
f 27/129/129 34/130/130 39/131/131 46/132/132 
f 28/133/133 25/134/134 48/135/135 45/136/136 
f 25/137/137 26/138/138 47/139/139 48/140/140 
f 26/141/141 27/142/142 46/143/143 47/144/144 
f 37/145/145 40/146/146 39/147/147 38/148/148 
f 37/149/149 38/150/150 41/151/151 42/152/152 
f 42/153/153 41/154/154 44/155/155 43/156/156 
f 39/157/157 40/158/158 45/159/159 46/160/160 
f 46/161/161 45/162/162 48/163/163 47/164/164 
f 22/165/165 19/166/166 52/167/167 49/168/168 
f 21/169/169 22/170/170 49/171/171 50/172/172 
f 20/173/173 21/174/174 50/175/175 51/176/176 
f 3/177/177 20/178/178 51/179/179 58/180/180 
f 19/181/181 4/182/182 57/183/183 52/184/184 
f 14/185/185 11/186/186 56/187/187 53/188/188 
f 13/189/189 14/190/190 53/191/191 54/192/192 
f 12/193/193 13/194/194 54/195/195 55/196/196 
f 11/197/197 2/198/198 59/199/199 56/200/200 
f 1/201/201 12/202/202 55/203/203 60/204/204 
f 4/205/205 1/206/206 60/207/207 57/208/208 
f 2/209/209 3/210/210 58/211/211 59/212/212 
f 59/213/213 58/214/214 63/215/215 62/216/216 
f 57/217/217 60/218/218 61/219/219 64/220/220 
f 60/221/221 55/222/222 66/223/223 61/224/224 
f 56/225/225 59/226/226 62/227/227 65/228/228 
f 55/229/229 54/230/230 67/231/231 66/232/232 
f 54/233/233 53/234/234 68/235/235 67/236/236 
f 53/237/237 56/238/238 65/239/239 68/240/240 
f 52/241/241 57/242/242 64/243/243 69/244/244 
f 58/245/245 51/246/246 70/247/247 63/248/248 
f 51/249/249 50/250/250 71/251/251 70/252/252 
f 50/253/253 49/254/254 72/255/255 71/256/256 
f 49/257/257 52/258/258 69/259/259 72/260/260 
f 63/261/261 64/262/262 61/263/263 62/264/264 
f 62/265/265 61/266/266 66/267/267 65/268/268 
f 65/269/269 66/270/270 67/271/271 68/272/272 
f 64/273/273 63/274/274 70/275/275 69/276/276 
f 69/277/277 70/278/278 71/279/279 72/280/280 
